<svg id="a" xmlns="http://www.w3.org/2000/svg" xmlns:xlink="http://www.w3.org/1999/xlink" viewBox="0 0 1280.93 1428.98"><defs><style>.c{stroke-width:19px;}.c,.d{fill:none;stroke:#fff;stroke-miterlimit:10;}.e{clip-path:url(#b);}</style><clipPath id="b"><rect class="d" x=".5" y=".5" width="1279.93" height="1427.98"/></clipPath></defs><g class="e"><path class="c" d="M640.46,11c-25.79,0-45.13,11.82-56.59,19.7s-22.56,17.91-27.22,23.64c-4.66,5.73-25.07,30.8-31.52,40.47s-33.31,57.66-42.26,72.34c-8.95,14.68-397.7,690.01-415.11,720.26-17.42,30.25-31.32,53.92-38.83,66.17-7.51,12.25-12.52,26.16-13.91,32.84-1.39,6.68-3.06,23.93-3.34,44.81-.28,20.87,.28,65.68,0,82.65-.28,16.98,.3,33.36,1.2,36.7,.89,3.34,3.01,12.53,3.01,12.53,0,0-1.9,6.36-3.02,9.97-1.12,3.61-1.87,8.35-1.87,18.94v105.96c0,18.85,.8,31.49,2.49,37.57,1.7,6.08,5.48,21.95,14.59,34.74,9.1,12.79,25.47,30.77,47.25,39.3,21.78,8.53,31.62,8.41,42.91,8.41H640.46"/><path class="c" d="M640.62,325.09c-20.16,0-40.23,7.39-54.51,17.31-14.28,9.91-34.95,26.55-48.73,48.05-13.78,21.51-110.18,186.43-129.72,219.88-19.55,33.45-266.52,462.14-297.14,512.84-30.62,50.7-48.78,84.47-63.34,110.23-14.56,25.76-14.62,25.01-23.52,42.85-11.07,22.18-15.02,57.43-3.03,80.66"/><path class="c" d="M640.62,361.85c-20.16,0-38.83,10.97-51.42,24.57-11.8,12.76-27.32,30.71-41.1,52.22-13.78,21.51-110.18,186.43-129.72,219.88-19.55,33.45-215.06,374.17-245.68,424.87-30.62,50.7-71.11,124.25-85.67,150.01-14.56,25.76-14.62,25-23.52,42.85-11.07,22.18-15.76,57.14-1.28,78.91,11.89,17.88,34.77,30,63.38,30H640.46"/><path class="c" d="M11.75,1107.65c1.4-2.8,15.57-19.85,23.95-26.84,8.39-6.99,31.62-21.84,34.07-20.79,2.45,1.05-9.78,20.79-15.72,31.45-5.94,10.66-31.16,60.8-38.15,71.63"/><path class="c" d="M640.46,135.05c-25.03,0-44.75,11.37-61.81,24.64-17.06,13.27-39.81,38.67-41.7,46.63-1.9,7.96-3.41,22.37-3.03,30.71,.38,8.34-.33,17.72,4.1,19.02,4.42,1.3,4.55-6.24,14.96-16,10.4-9.75,24.32-29,48.51-39.02,24.19-10.01,31.8-9.49,38.98-9.49"/><line class="c" x1="172.7" y1="1083.38" x2="640.46" y2="1083.38"/><path class="c" d="M640.46,11c25.79,0,45.13,11.82,56.59,19.7,11.46,7.88,22.56,17.91,27.22,23.64,4.66,5.73,25.07,30.8,31.52,40.47,6.45,9.67,33.31,57.66,42.26,72.34,8.95,14.68,397.7,690.01,415.11,720.26,17.42,30.25,31.32,53.92,38.83,66.17,7.51,12.25,12.52,26.16,13.91,32.84,1.39,6.68,3.06,23.93,3.34,44.81,.28,20.87-.28,65.68,0,82.65,.28,16.98-.3,33.36-1.2,36.7-.89,3.34-3.01,12.53-3.01,12.53,0,0,1.9,6.36,3.02,9.97,1.12,3.61,1.87,8.35,1.87,18.94v105.96c0,18.85-.8,31.49-2.49,37.57-1.7,6.08-5.48,21.95-14.59,34.74-9.1,12.79-25.47,30.77-47.25,39.3-21.78,8.53-31.62,8.41-42.91,8.41H640.46"/><path class="c" d="M640.31,325.09c20.16,0,40.23,7.39,54.51,17.31,14.28,9.91,34.95,26.55,48.73,48.05,13.78,21.51,110.18,186.43,129.72,219.88,19.55,33.45,266.52,462.14,297.14,512.84,30.62,50.7,48.78,84.47,63.34,110.23,14.56,25.76,14.62,25.01,23.52,42.85,11.07,22.18,15.02,57.43,3.03,80.66"/><path class="c" d="M640.31,361.85c20.16,0,38.83,10.97,51.42,24.57,11.8,12.76,27.32,30.71,41.1,52.22,13.78,21.51,110.18,186.43,129.72,219.88,19.55,33.45,215.06,374.17,245.68,424.87,30.62,50.7,71.11,124.25,85.67,150.01,14.56,25.76,14.62,25,23.52,42.85,11.07,22.18,15.76,57.14,1.28,78.91-11.89,17.88-34.77,30-63.38,30H640.46"/><path class="c" d="M1269.18,1107.65c-1.4-2.8-15.57-19.85-23.95-26.84-8.39-6.99-31.62-21.84-34.07-20.79-2.45,1.05,9.78,20.79,15.72,31.45,5.94,10.66,31.16,60.8,38.15,71.63"/><path class="c" d="M640.46,135.05c25.03,0,44.75,11.37,61.81,24.64,17.06,13.27,39.81,38.67,41.7,46.63,1.9,7.96,3.41,22.37,3.03,30.71-.38,8.34,.33,17.72-4.1,19.02-4.42,1.3-4.55-6.24-14.96-16-10.4-9.75-24.32-29-48.51-39.02-24.19-10.01-31.8-9.49-38.98-9.49"/><line class="c" x1="1108.23" y1="1083.38" x2="640.47" y2="1083.38"/></g><rect class="d" x=".5" y=".5" width="1279.93" height="1427.98"/></svg>
